HIERARCHY
ROOT hip
{
  OFFSET -50.5495 80.3689 -57.5952
  CHANNELS 6 Xposition Yposition Zposition Zrotation Xrotation Yrotation
  JOINT abdomen
  {
    OFFSET 0 20.6881 -0.73152
    CHANNELS 3 Zrotation Xrotation Yrotation
    JOINT chest
    {
      OFFSET 0 11.7043 -0.48768
      CHANNELS 3 Zrotation Xrotation Yrotation
      JOINT neck
      {
        OFFSET 0 22.1894 -2.19456
        CHANNELS 3 Zrotation Xrotation Yrotation
        JOINT head
        {
          OFFSET -0.24384 7.07133 1.2192
          CHANNELS 3 Zrotation Xrotation Yrotation
          JOINT leftEye
          {
            OFFSET 4.14528 8.04674 8.04672
            CHANNELS 3 Zrotation Xrotation Yrotation
            End Site
            {
              OFFSET 1 0 0
            }
          }
          JOINT rightEye
          {
            OFFSET -3.6576 8.04674 8.04672
            CHANNELS 3 Zrotation Xrotation Yrotation
            End Site
            {
              OFFSET 1 0 0
            }
          }
        }
      }
      JOINT rCollar
      {
        OFFSET -2.68224 19.2634 -4.8768
        CHANNELS 3 Zrotation Xrotation Yrotation
        JOINT rShldr
        {
          OFFSET -8.77824 -1.95073 1.46304
          CHANNELS 3 Zrotation Xrotation Yrotation
          JOINT rForeArm
          {
            OFFSET -28.1742 -1.7115 0.48768
            CHANNELS 3 Zrotation Xrotation Yrotation
            JOINT rHand
            {
              OFFSET -22.5879 0.773209 7.07136
              CHANNELS 3 Zrotation Xrotation Yrotation
              JOINT rThumb1
              {
                OFFSET -1.2192 -0.487915 3.41376
                CHANNELS 3 Zrotation Xrotation Yrotation
                JOINT rThumb2
                {
                  OFFSET -3.37035 -0.52449 3.41376
                  CHANNELS 3 Zrotation Xrotation Yrotation
                  End Site
                  {
                    OFFSET -1.78271 -1.18214 1.43049
                  }
                }
              }
              JOINT rIndex1
              {
                OFFSET -7.75947 0.938293 5.60832
                CHANNELS 3 Zrotation Xrotation Yrotation
                JOINT rIndex2
                {
                  OFFSET -2.54057 -0.884171 1.56538
                  CHANNELS 3 Zrotation Xrotation Yrotation
                  End Site
                  {
                    OFFSET -1.62519 -0.234802 1.16502
                  }
                }
              }
              JOINT rMid1
              {
                OFFSET -8.24714 1.18213 3.41376
                CHANNELS 3 Zrotation Xrotation Yrotation
                JOINT rMid2
                {
                  OFFSET -3.10165 -0.590103 1.0647
                  CHANNELS 3 Zrotation Xrotation Yrotation
                  End Site
                  {
                    OFFSET -2.48547 -0.328903 0.83742
                  }
                }
              }
              JOINT rRing1
              {
                OFFSET -8.82822 0.546677 1.51678
                CHANNELS 3 Zrotation Xrotation Yrotation
                JOINT rRing2
                {
                  OFFSET -2.60934 -0.819778 -0.0198488
                  CHANNELS 3 Zrotation Xrotation Yrotation
                  End Site
                  {
                    OFFSET -2.33842 -0.294052 0.168128
                  }
                }
              }
              JOINT rPinky1
              {
                OFFSET -8.27202 -0.0477905 -0.4584
                CHANNELS 3 Zrotation Xrotation Yrotation
                JOINT rPinky2
                {
                  OFFSET -1.82734 -0.647385 -0.700984
                  CHANNELS 3 Zrotation Xrotation Yrotation
                  End Site
                  {
                    OFFSET -1.69225 -0.51767 -0.607171
                  }
                }
              }
            }
          }
        }
      }
      JOINT lCollar
      {
        OFFSET 2.68224 19.2634 -4.8768
        CHANNELS 3 Zrotation Xrotation Yrotation
        JOINT lShldr
        {
          OFFSET 8.77824 -1.95073 1.46304
          CHANNELS 3 Zrotation Xrotation Yrotation
          JOINT lForeArm
          {
            OFFSET 28.1742 -1.7115 0.48768
            CHANNELS 3 Zrotation Xrotation Yrotation
            JOINT lHand
            {
              OFFSET 22.5879 0.773209 7.07136
              CHANNELS 3 Zrotation Xrotation Yrotation
              JOINT lThumb1
              {
                OFFSET 1.2192 -0.487915 3.41376
                CHANNELS 3 Zrotation Xrotation Yrotation
                JOINT lThumb2
                {
                  OFFSET 3.37035 -0.52449 3.41376
                  CHANNELS 3 Zrotation Xrotation Yrotation
                  End Site
                  {
                    OFFSET 1.78271 -1.18214 1.43049
                  }
                }
              }
              JOINT lIndex1
              {
                OFFSET 7.75947 0.938293 5.60832
                CHANNELS 3 Zrotation Xrotation Yrotation
                JOINT lIndex2
                {
                  OFFSET 2.54057 -0.884171 1.56538
                  CHANNELS 3 Zrotation Xrotation Yrotation
                  End Site
                  {
                    OFFSET 1.62519 -0.234802 1.16502
                  }
                }
              }
              JOINT lMid1
              {
                OFFSET 8.24714 1.18213 3.41376
                CHANNELS 3 Zrotation Xrotation Yrotation
                JOINT lMid2
                {
                  OFFSET 3.10165 -0.590103 1.0647
                  CHANNELS 3 Zrotation Xrotation Yrotation
                  End Site
                  {
                    OFFSET 2.48547 -0.328903 0.83742
                  }
                }
              }
              JOINT lRing1
              {
                OFFSET 8.82822 0.546677 1.51678
                CHANNELS 3 Zrotation Xrotation Yrotation
                JOINT lRing2
                {
                  OFFSET 2.60934 -0.819778 -0.0198488
                  CHANNELS 3 Zrotation Xrotation Yrotation
                  End Site
                  {
                    OFFSET 2.33842 -0.294052 0.168128
                  }
                }
              }
              JOINT lPinky1
              {
                OFFSET 8.27202 -0.0477905 -0.4584
                CHANNELS 3 Zrotation Xrotation Yrotation
                JOINT lPinky2
                {
                  OFFSET 1.82734 -0.647385 -0.700984
                  CHANNELS 3 Zrotation Xrotation Yrotation
                  End Site
                  {
                    OFFSET 1.69225 -0.51767 -0.607171
                  }
                }
              }
            }
          }
        }
      }
    }
  }
  JOINT rButtock
  {
    OFFSET -8.77824 4.35084 1.2192
    CHANNELS 3 Zrotation Xrotation Yrotation
    JOINT rThigh
    {
      OFFSET 0 -1.70687 -2.19456
      CHANNELS 3 Zrotation Xrotation Yrotation
      JOINT rShin
      {
        OFFSET 0 -36.8199 0.73152
        CHANNELS 3 Zrotation Xrotation Yrotation
        JOINT rFoot
        {
          OFFSET 0.73152 -45.1104 -5.12064
          CHANNELS 3 Zrotation Xrotation Yrotation
          End Site
          {
            OFFSET -1.1221 -3.69964 12.103
          }
        }
      }
    }
  }
  JOINT lButtock
  {
    OFFSET 8.77824 4.35084 1.2192
    CHANNELS 3 Zrotation Xrotation Yrotation
    JOINT lThigh
    {
      OFFSET 0 -1.70687 -2.19456
      CHANNELS 3 Zrotation Xrotation Yrotation
      JOINT lShin
      {
        OFFSET 0 -36.8199 0.73152
        CHANNELS 3 Zrotation Xrotation Yrotation
        JOINT lFoot
        {
          OFFSET -0.73152 -45.1104 -5.12064
          CHANNELS 3 Zrotation Xrotation Yrotation
          End Site
          {
            OFFSET 1.1221 -3.69964 12.103
          }
        }
      }
    }
  }
}
MOTION
Frames:	5
Frame Time:	0.00833333
-13.2889 83.416 240.947 0.422029 -0.001155 -0.00720024 -0.555345 -0.0030589 -0.0158856 -0.153309 -0.0047609 -0.0265634 1.50938e-014 0 -1.98785e-016 4.50589e-014 3.18055e-015 -5.79271e-016 -0 0 0 -0 0 0 7.45337e-015 5.43552e-018 0 1.59846e-013 -2.67117e-016 -3.97569e-016 2.7152e-012 -8.08656e-013 -5.08889e-014 3.10659e-011 8.25279e-013 -3.65764e-013 7.32783e-011 3.95113e-014 -9.09639e-013 1.26539e-010 6.67917e-014 -1.58074e-012 7.32832e-011 4.17448e-014 -9.12819e-013 7.73091 5.47488 0.417314 7.32791e-011 3.99557e-014 -9.16e-013 2.90554 0.965183 0.102902 7.32889e-011 3.96575e-014 -9.14409e-013 10.2786 0.731801 0.0259123 7.32756e-011 3.89618e-014 -9.06458e-013 2.22167 -0.733487 -0.20892 7.45597e-015 4.46489e-018 -1.98785e-016 1.55524e-013 -6.21202e-017 -2.38542e-015 2.71396e-012 8.15216e-013 -7.95139e-014 3.10683e-011 -7.93499e-013 -3.37139e-013 7.3287e-011 4.75233e-014 -9.1918e-013 1.26569e-010 8.5875e-014 -1.5871e-012 7.32824e-011 4.81059e-014 -9.12819e-013 -7.73091 5.47488 -0.417314 7.32872e-011 4.72114e-014 -9.22361e-013 -2.90554 0.965183 -0.102902 7.3277e-011 4.78077e-014 -9.18385e-013 -10.2786 0.731801 -0.0259123 7.32919e-011 4.73108e-014 -9.25541e-013 -2.22167 -0.733487 0.20892 -2.03217e-016 0 -3.88251e-019 0.0645668 -2.35904 -0.0223843 -0.0079848 -1.27855 -0.068468 -0.484862 3.6378 0.128991 2.03217e-016 0 3.88251e-019 -0.910213 -4.5005 0.0764471 0.00202048 2.60031 0.00926476 0.492747 1.90049 -0.0947564 
-12.7408 80.7208 234.22 -3.86085 2.74449 47.3574 1.09859 -4.69852 0.217949 -0.164138 0.0989693 -0.147939 -2.22533 -0.0273276 -0.520277 2.12695 5.32946 -2.27687 -0 0 0 -0 0 0 -1.49312e-014 -1.26591e-013 -1.31792e-013 22.4711 11.884 -0.444788 -4.4793 -2.08964 6.93625 0.0242625 3.46086 0.483205 -3.65319e-010 1.07175e-010 3.83958e-010 -6.26543e-010 1.76308e-010 6.68653e-010 -3.65315e-010 1.07177e-010 3.83953e-010 7.73091 5.47488 0.417314 -3.65319e-010 1.07176e-010 3.83954e-010 2.90554 0.965183 0.102902 -3.65311e-010 1.07176e-010 3.83955e-010 10.2786 0.731801 0.0259123 -3.65324e-010 1.07176e-010 3.83961e-010 2.22167 -0.733487 -0.20892 -1.50032e-014 -1.26592e-013 -1.3199e-013 -22.0544 12.0364 0.318962 4.74526 -2.27214 -7.28147 -0.00676556 -1.82472 0.255978 7.20273e-010 9.11442e-011 -5.00174e-010 1.24451e-009 1.59309e-010 -8.6145e-010 7.20267e-010 9.11441e-011 -5.00166e-010 -7.73091 5.47488 -0.417314 7.20273e-010 9.11421e-011 -5.00175e-010 -2.90554 0.965183 -0.102902 7.20265e-010 9.11424e-011 -5.00173e-010 -10.2786 0.731801 -0.0259123 7.20279e-010 9.11429e-011 -5.00182e-010 -2.22167 -0.733487 0.20892 -2.03217e-016 0 -3.88251e-019 2.21588 -11.5225 1.77174 0.0231317 10.2846 0.116811 -1.0368 -1.67294 -4.74069 2.03217e-016 0 3.88251e-019 0.154037 -13.2792 -2.74589 -0.0218799 13.8675 -0.178811 1.34497 -4.15949 5.33379 
-12.8071 80.725 234.095 -10.5251 -1.05118 97.2046 2.89171 -9.65884 0.471588 -0.177863 0.20312 -0.276044 -4.57555 -0.0533842 -1.06974 4.84288 10.9383 -4.75203 -0 0 0 -0 0 0 -3.65841e-014 -2.66816e-013 -2.78044e-013 46.4507 24.4374 -0.992397 -8.66761 -4.19576 14.2966 -0.0141326 7.13922 1.00281 -8.77834e-010 2.79724e-010 7.77445e-010 -1.50715e-009 4.64555e-010 1.35459e-009 -8.77832e-010 2.79726e-010 7.77438e-010 7.73091 5.47488 0.417314 -8.77834e-010 2.79725e-010 7.77442e-010 2.90554 0.965183 0.102902 -8.77828e-010 2.79724e-010 7.77443e-010 10.2786 0.731801 0.0259123 -8.7784e-010 2.79725e-010 7.77448e-010 2.22167 -0.733487 -0.20892 -3.67388e-014 -2.66818e-013 -2.7824e-013 -45.5299 24.7632 0.713749 9.13876 -4.55152 -15.015 0.00384268 -3.75216 0.527247 1.40011e-009 1.40607e-010 -1.06963e-009 2.41925e-009 2.46719e-010 -1.84248e-009 1.4001e-009 1.40606e-010 -1.06962e-009 -7.73091 5.47488 -0.417314 1.40011e-009 1.40603e-010 -1.06963e-009 -2.90554 0.965183 -0.102902 1.4001e-009 1.40603e-010 -1.06963e-009 -10.2786 0.731801 -0.0259123 1.40012e-009 1.40604e-010 -1.06964e-009 -2.22167 -0.733487 0.20892 -2.03217e-016 0 -3.88251e-019 5.15691 -21.1722 3.84951 -0.030645 22.5076 0.334254 -2.60247 -7.19083 -9.96005 2.03217e-016 0 3.88251e-019 0.270775 -22.4736 -6.03515 0.0414652 25.7788 -0.407433 3.50372 -10.4026 11.2281 
-12.7228 80.7119 234.468 -11.0664 -9.52657 141.241 4.52444 -14.0885 0.704617 -0.184476 0.306423 -0.390694 -6.67748 -0.0819559 -1.56083 7.69104 15.8854 -7.07246 -0 0 0 -0 0 0 -5.97004e-014 -3.79782e-013 -3.95376e-013 68.0751 35.6422 -1.60683 -11.9504 -5.9022 20.9108 -0.104796 10.3796 1.47105 -1.24251e-009 3.21447e-010 1.15369e-009 -2.13271e-009 5.28792e-010 2.00912e-009 -1.24251e-009 3.21449e-010 1.15369e-009 7.73091 5.47488 0.417314 -1.24251e-009 3.21447e-010 1.15369e-009 2.90554 0.965183 0.102902 -1.24251e-009 3.21447e-010 1.15369e-009 10.2786 0.731801 0.0259123 -1.24252e-009 3.21449e-010 1.1537e-009 2.22167 -0.733487 -0.20892 -5.99214e-014 -3.79786e-013 -3.95571e-013 -66.6464 36.1041 1.15833 12.5409 -6.37702 -21.9701 0.028806 -5.47373 0.771061 2.01425e-009 2.73338e-010 -1.49868e-009 3.48039e-009 4.77754e-010 -2.58118e-009 2.01424e-009 2.73336e-010 -1.49867e-009 -7.73091 5.47488 -0.417314 2.01425e-009 2.73332e-010 -1.49868e-009 -2.90554 0.965183 -0.102902 2.01424e-009 2.73332e-010 -1.49868e-009 -10.2786 0.731801 -0.0259123 2.01425e-009 2.73334e-010 -1.49869e-009 -2.22167 -0.733487 0.20892 -2.03217e-016 0 -3.88251e-019 8.46392 -29.7275 6.05163 -0.172876 33.4097 0.577063 -4.86311 -11.9151 -14.7994 2.03217e-016 0 3.88251e-019 -0.669443 -30.5336 -9.49626 0.198538 36.4004 -0.670043 6.55142 -15.6721 16.7901 
-12.7298 80.7184 234.332 -6.20385 -14.7178 172.72 5.67096 -17.1926 0.867801 -0.174126 0.407612 -0.471702 -8.15789 -0.116835 -1.906 9.9278 19.2765 -8.77491 -0 0 0 -0 0 0 -8.64755e-014 -4.24603e-013 -4.40407e-013 83.2961 43.4854 -2.12712 -14.0044 -6.95799 25.5629 -0.196449 12.528 1.78959 -1.23761e-009 3.61056e-011 1.48685e-009 -2.12066e-009 3.30046e-011 2.58512e-009 -1.23761e-009 3.61069e-011 1.48684e-009 7.73091 5.47488 0.417314 -1.23761e-009 3.61057e-011 1.48685e-009 2.90554 0.965183 0.102902 -1.2376e-009 3.61057e-011 1.48685e-009 10.2786 0.731801 0.0259123 -1.23762e-009 3.61076e-011 1.48685e-009 2.22167 -0.733487 -0.20892 -8.67213e-014 -4.24607e-013 -4.40606e-013 -81.4856 43.9848 1.53236 14.6442 -7.48618 -26.8594 0.0550596 -6.68104 0.94328 2.46413e-009 6.14238e-010 -1.57671e-009 4.25754e-009 1.06785e-009 -2.71403e-009 2.46412e-009 6.14237e-010 -1.5767e-009 -7.73091 5.47488 -0.417314 2.46413e-009 6.14232e-010 -1.57671e-009 -2.90554 0.965183 -0.102902 2.46412e-009 6.14232e-010 -1.57671e-009 -10.2786 0.731801 -0.0259123 2.46414e-009 6.14235e-010 -1.57672e-009 -2.22167 -0.733487 0.20892 -2.03217e-016 0 -3.88251e-019 11.2583 -35.6582 7.93689 -0.345702 41.0106 0.798114 -6.93517 -15.0356 -18.3408 2.03217e-016 0 3.88251e-019 -2.06557 -36.0354 -12.3911 0.389139 43.799 -0.913837 9.32936 -19.0979 20.921 
